<?xml version="1.0" encoding="UTF-8"?>
<svg width="64px" height="33px" viewBox="0 0 64 33" version="1.1" xmlns="http://www.w3.org/2000/svg" xmlns:xlink="http://www.w3.org/1999/xlink">
    <!-- Generator: Sketch 48.1 (47250) - http://www.bohemiancoding.com/sketch -->
    <title>Page 1</title>
    <desc>Created with Sketch.</desc>
    <defs>
        <polygon id="path-1" points="0.2928 0.4904 15.3828 0.4904 15.3828 17 0.2928 17"></polygon>
        <polygon id="path-3" points="0.8653 0.62 3.9173 0.62 3.9173 3.6726 0.8653 3.6726"></polygon>
        <polygon id="path-5" points="0 33.3801 63.28 33.3801 63.28 1.0001 0 1.0001"></polygon>
    </defs>
    <g id="Desktop" stroke="none" stroke-width="1" fill="none" fill-rule="evenodd" transform="translate(-210.000000, -14.000000)">
        <g id="Page-1" transform="translate(210.000000, 13.000000)">
            <g id="Group-3" transform="translate(1.000000, 16.380100)">
                <mask id="mask-2" fill="white">
                    <use xlink:href="#path-1"></use>
                </mask>
                <g id="Clip-2"></g>
                <path d="M1.8908,7.4584 C0.7368,7.1914 0.2928,6.5704 0.2928,5.8594 C0.2928,5.5504 0.3818,5.2384 0.5598,4.8844 C0.8698,4.2634 1.4468,3.8184 2.1128,3.8184 C2.5128,3.8184 3.0448,4.0404 3.5328,4.5284 L7.5718,8.4344 L7.6608,8.3904 L6.1508,2.8424 C5.6188,1.1114 6.6398,0.4904 7.8378,0.4904 C9.0358,0.4904 9.9688,1.1114 9.5238,2.8424 L7.9708,8.3904 L8.0598,8.4344 L12.0988,4.5284 C12.6318,4.0404 13.1638,3.8184 13.5628,3.8184 C14.1838,3.8184 14.7178,4.2184 15.0718,4.7954 C15.2938,5.1054 15.3828,5.4614 15.3828,5.8154 C15.3828,6.5254 14.9828,7.1914 13.8738,7.4584 L8.2368,8.7004 L8.2368,8.7894 L13.7408,10.2094 C14.8948,10.4764 15.3378,11.1864 15.3378,11.8524 C15.3378,12.2064 15.2498,12.5184 15.0278,12.8724 C14.7178,13.4494 14.1408,13.8054 13.5178,13.8054 C13.1188,13.8054 12.5428,13.5824 12.0098,13.0504 L8.0598,9.0564 L7.9708,9.1004 L9.4798,14.5594 C9.9248,16.2894 9.0358,17.0004 7.8378,17.0004 C6.6398,17.0004 5.6628,16.2894 6.1508,14.5594 L7.6608,9.1004 L7.5718,9.0564 L3.6658,13.0504 C3.0888,13.6274 2.5568,13.8494 2.0678,13.8494 C1.4918,13.8494 0.9138,13.4934 0.6038,12.8724 C0.4258,12.5624 0.2928,12.1624 0.2928,11.8524 C0.2928,11.1424 0.7808,10.4764 1.9348,10.2094 L7.4378,8.7894 L7.4378,8.7004 L1.8908,7.4584 Z" id="Fill-1" fill="#003F84" mask="url(#mask-2)"></path>
            </g>
            <path d="M10.1745,10.8776 C9.5505,11.9706 8.3375,12.6486 7.0075,12.6486 C4.6415,12.6486 2.8565,10.7296 2.8565,8.1846 C2.8565,5.6396 4.6415,3.7196 7.0075,3.7196 C8.3255,3.7196 9.5395,4.3986 10.1755,5.4926 L10.2965,5.6996 L12.7145,4.4666 L12.5685,4.2316 C11.3005,2.2046 9.4295,1.1766 7.0075,1.1766 C3.0125,1.1766 0.0005,4.1896 0.0005,8.1846 C0.0005,12.1796 3.0125,15.1916 7.0075,15.1916 C9.4045,15.1916 11.2755,14.1646 12.5675,12.1386 L12.7175,11.9026 L10.2945,10.6676 L10.1745,10.8776 Z" id="Fill-4" fill="#231916"></path>
            <path d="M21.1774,9.9655 C21.1774,11.3615 20.3994,12.8635 18.6904,12.8635 C16.9944,12.8635 16.2224,11.3615 16.2224,9.9655 C16.2224,8.5795 16.9944,7.0875 18.6904,7.0875 C20.3994,7.0875 21.1774,8.5795 21.1774,9.9655 M18.6904,4.7585 C15.7304,4.7585 13.5814,6.9485 13.5814,9.9655 C13.5814,12.9935 15.7304,15.1925 18.6904,15.1925 C21.6614,15.1925 23.8194,12.9935 23.8194,9.9655 C23.8194,6.9485 21.6614,4.7585 18.6904,4.7585" id="Fill-6" fill="#231916"></path>
            <path d="M31.5807,11.7965 C31.1687,12.3035 30.3747,12.8635 29.4067,12.8635 C28.2387,12.8635 27.7627,12.3815 27.7627,11.1985 L27.7627,4.9935 L25.1987,4.9935 L25.1987,11.9425 C25.1987,14.0685 26.3367,15.1925 28.4867,15.1925 C29.9407,15.1925 30.9787,14.5605 31.5807,14.0495 L31.5807,14.9575 L34.1437,14.9575 L34.1437,4.9935 L31.5807,4.9935 L31.5807,11.7965 Z" id="Fill-8" fill="#231916"></path>
            <path d="M41.5993,4.7584 C40.3143,4.7584 39.2383,5.3034 38.5253,5.9234 L38.5253,4.9934 L35.9613,4.9934 L35.9613,14.9574 L38.5253,14.9574 L38.5253,8.1914 C38.9333,7.6674 39.7253,7.0874 40.6993,7.0874 C41.8523,7.0874 42.3443,7.5964 42.3443,8.7904 L42.3443,14.9574 L44.9073,14.9574 L44.9073,8.0474 C44.9073,5.9264 43.7323,4.7584 41.5993,4.7584" id="Fill-10" fill="#231916"></path>
            <path d="M50.4313,12.6168 C50.3403,12.7198 50.0523,12.8638 49.7013,12.8638 C49.1173,12.8638 49.0533,12.2618 49.0533,12.0018 L49.0533,7.3028 L50.9723,7.3028 L50.9723,4.9938 L49.0533,4.9938 L49.0533,2.4098 L46.4913,2.4098 L46.4913,5.2478 L46.4913,7.0488 L46.4913,7.3498 L46.4913,12.5118 C46.4913,14.2158 47.4683,15.1918 49.1723,15.1918 C50.1013,15.1918 50.8113,14.9648 51.2853,14.5158 L51.4003,14.4068 L50.7283,12.2828 L50.4313,12.6168 Z" id="Fill-12" fill="#231916"></path>
            <g id="Group-16" transform="translate(52.000000, 0.380100)">
                <mask id="mask-4" fill="white">
                    <use xlink:href="#path-3"></use>
                </mask>
                <g id="Clip-15"></g>
                <path d="M2.3913,0.6196 C1.5503,0.6196 0.8653,1.3056 0.8653,2.1456 C0.8653,2.9876 1.5503,3.6726 2.3913,3.6726 C3.2333,3.6726 3.9173,2.9876 3.9173,2.1456 C3.9173,1.3056 3.2333,0.6196 2.3913,0.6196" id="Fill-14" fill="#231916" mask="url(#mask-4)"></path>
            </g>
            <mask id="mask-6" fill="white">
                <use xlink:href="#path-5"></use>
            </mask>
            <g id="Clip-18"></g>
            <polygon id="Fill-17" fill="#231916" mask="url(#mask-6)" points="53.12 14.9581 55.683 14.9581 55.683 4.9941 53.12 4.9941"></polygon>
            <path d="M63.027,4.7789 C62.016,4.7789 61,5.2179 60.207,5.9789 L60.207,4.9939 L57.644,4.9939 L57.644,14.9579 L60.207,14.9579 L60.207,8.3389 C60.599,7.7779 61.629,7.2629 62.381,7.2629 C62.616,7.2629 62.814,7.2809 62.971,7.3159 L63.281,7.3839 L63.281,4.7789 L63.027,4.7789 Z" id="Fill-19" fill="#231916" mask="url(#mask-6)"></path>
            <path d="M26.3112,29.653 C27.3902,29.653 28.0302,29.034 28.0302,28.074 C28.0302,27.234 27.4302,26.514 26.3112,26.514 L22.6522,26.514 L22.6522,29.653 L26.3112,29.653 Z M26.2102,24.094 C27.1702,24.094 27.7702,23.475 27.7702,22.615 C27.7702,21.796 27.1702,21.156 26.2102,21.156 L22.6522,21.156 L22.6522,24.094 L26.2102,24.094 Z M19.8122,18.736 L26.8312,18.736 C29.3702,18.736 30.6692,20.356 30.6692,22.135 C30.6692,23.815 29.6292,24.934 28.3702,25.195 C29.7902,25.415 30.9292,26.794 30.9292,28.473 C30.9292,30.473 29.5892,32.073 27.0502,32.073 L19.8122,32.073 L19.8122,18.736 Z" id="Fill-20" fill="#231916" mask="url(#mask-6)"></path>
            <path d="M49.1686,26.234 C49.1686,24.894 48.4686,24.434 47.3886,24.434 C46.3896,24.434 45.6086,24.995 45.1896,25.574 L45.1896,32.073 L42.6496,32.073 L42.6496,22.416 L45.1896,22.416 L45.1896,23.674 C45.8096,22.935 46.9886,22.175 48.5676,22.175 C50.6876,22.175 51.7076,23.375 51.7076,25.255 L51.7076,32.073 L49.1686,32.073 L49.1686,26.234 Z" id="Fill-21" fill="#231916" mask="url(#mask-6)"></path>
            <polygon id="Fill-22" fill="#231916" mask="url(#mask-6)" points="57.1823 28.3532 56.0223 29.5932 56.0223 32.0732 53.4833 32.0732 53.4833 18.7362 56.0223 18.7362 56.0223 26.7132 59.6813 22.4162 62.8003 22.4162 58.9813 26.7932 62.9203 32.0732 59.7423 32.0732"></polygon>
            <path d="M38.3913,29.8248 C37.8923,30.3798 37.1713,30.5938 36.3523,30.5938 C35.3523,30.5938 34.5323,30.0728 34.5323,29.1738 C34.5323,28.2538 35.3523,27.7138 36.3523,27.7138 C37.1713,27.7138 37.7243,27.8918 38.3913,28.3738 L38.3913,29.8248 Z M36.7113,22.1758 C35.1923,22.1758 33.6723,22.6548 32.4933,23.6948 L33.8603,25.0608 C34.5843,24.5258 35.3993,24.2548 36.2723,24.2548 C37.5513,24.2548 38.3913,24.8538 38.3913,25.8738 L38.3913,26.7088 C37.8553,26.4468 36.6123,26.0338 35.3313,26.0338 C33.7923,26.0338 31.9733,26.8538 31.9733,29.1128 C31.9733,31.2728 33.7923,32.3118 35.3313,32.3118 C36.5913,32.3118 37.9123,31.7278 38.3913,31.4428 L38.3913,32.0728 L40.9303,32.0728 L40.9303,25.8348 C40.9303,23.0548 38.9113,22.1758 36.7113,22.1758 Z" id="Fill-23" fill="#231916" mask="url(#mask-6)"></path>
        </g>
    </g>
</svg>