<?xml version="1.0" encoding="UTF-8"?>
<svg width="375px" height="191px" viewBox="0 0 375 191" version="1.1" xmlns="http://www.w3.org/2000/svg" xmlns:xlink="http://www.w3.org/1999/xlink">
    <!-- Generator: Sketch 48.1 (47250) - http://www.bohemiancoding.com/sketch -->
    <title>Page 1</title>
    <desc>Created with Sketch.</desc>
    <defs>
        <polygon id="path-1" points="0 0 375 0 375 191 0 191"></polygon>
    </defs>
    <g id="Desktop" stroke="none" stroke-width="1" fill="none" fill-rule="evenodd" transform="translate(-453.000000, -192.000000)">
        <g id="Page-1" transform="translate(453.000000, 192.000000)">
            <mask id="mask-2" fill="white">
                <use xlink:href="#path-1"></use>
            </mask>
            <g id="Clip-2"></g>
            <path d="M227.509047,161.471093 C223.556439,158.633817 220.279389,157.577949 215.42011,157.577949 C209.500087,157.577949 204.640808,160.763249 204.640808,166.190056 C204.640808,171.492989 209.500087,174.560315 215.42011,174.560315 C220.279389,174.560315 224.551998,173.303891 227.509047,170.030111 L227.509047,161.471093 Z M242.555032,146.488388 L242.555032,183.284497 L227.509047,183.284497 L227.509047,179.574212 C224.664591,181.255343 216.842338,184.700185 209.375642,184.700185 C200.255606,184.700185 189.476304,178.565534 189.476304,165.830235 C189.476304,152.505065 200.255606,147.668128 209.375642,147.668128 C216.960857,147.668128 224.326812,150.098394 227.509047,151.643854 L227.509047,146.724336 C227.509047,140.707659 222.53125,137.174336 214.95196,137.174336 C209.778607,137.174336 204.943032,138.772884 200.658571,141.928691 L192.557798,133.871062 C199.544492,127.736411 208.551935,124.910933 217.553452,124.910933 C230.590541,124.910933 242.555032,130.101791 242.555032,146.488388 Z M354.028065,183.284497 L372.860732,183.284497 L349.524344,152.151143 L372.149618,126.326621 L353.672508,126.326621 L331.98946,151.679246 L331.98946,104.619395 L316.943474,104.619395 L316.943474,183.284497 L331.98946,183.284497 L331.98946,168.667511 L338.863561,161.347221 L354.028065,183.284497 Z M291.373003,183.284497 L306.413062,183.284497 L306.413062,143.073039 C306.413062,131.983477 300.37452,124.910933 287.817433,124.910933 C278.460359,124.910933 271.467739,129.393947 267.793651,133.753088 L267.793651,126.326621 L252.747665,126.326621 L252.747665,183.284497 L267.793651,183.284497 L267.793651,144.954725 C270.282549,141.539376 274.90479,138.236103 280.824813,138.236103 C287.224838,138.236103 291.373003,140.949506 291.373003,148.847869 L291.373003,183.284497 Z M134.24053,169.015534 L134.24053,150.505405 L155.917653,150.505405 C162.554716,150.505405 166.110286,154.746572 166.110286,159.701482 C166.110286,165.358338 162.311752,169.015534 155.917653,169.015534 L134.24053,169.015534 Z M134.24053,136.230544 L134.24053,118.894256 L155.325058,118.894256 C161.008043,118.894256 164.569539,122.669426 164.569539,127.500463 C164.569539,132.579246 161.008043,136.230544 155.325058,136.230544 L134.24053,136.230544 Z M117.410834,183.284497 L160.302856,183.284497 C175.348841,183.284497 183.289613,173.852471 183.289613,162.060964 C183.289613,152.151143 176.528105,144.016831 168.125109,142.713218 C175.585879,141.185454 181.74294,134.578907 181.74294,124.674985 C181.74294,114.175293 174.051058,104.619395 158.999147,104.619395 L117.410834,104.619395 L117.410834,183.284497 Z M373.500735,22.2852996 C367.5096,22.2852996 361.48291,24.8866275 356.783632,29.3696418 L356.783632,23.5594194 L341.60135,23.5594194 L341.60135,82.3340951 L356.783632,82.3340951 L356.783632,43.2905806 C359.11253,39.9814083 365.210332,36.949475 369.666646,36.949475 C371.059244,36.949475 372.238508,37.0497529 373.168882,37.2562075 L375,37.663218 L375,22.2852996 L373.500735,22.2852996 Z M314.792355,82.3340951 L329.980563,82.3340951 L329.980563,23.5594194 L314.792355,23.5594194 L314.792355,82.3340951 Z M322.324236,0 C317.334587,0 313.281238,4.04061149 313.281238,9.00142063 C313.281238,13.9681285 317.334587,18.00874 322.324236,18.00874 C327.313886,18.00874 331.367235,13.9681285 331.367235,9.00142063 C331.367235,4.04061149 327.313886,0 322.324236,0 Z M298.857477,68.5252316 C298.31229,69.132798 296.611542,69.9822112 294.531534,69.9822112 C291.07078,69.9822112 290.691519,66.4311921 290.691519,64.8975293 L290.691519,37.1795244 L302.063416,37.1795244 L302.063416,23.5594194 L290.691519,23.5594194 L290.691519,8.31717109 L275.509237,8.31717109 L275.509237,25.0576899 L275.509237,35.6812539 L275.509237,37.4626621 L275.509237,67.8999691 C275.509237,77.9513589 281.298889,83.7143916 291.396707,83.7143916 C296.895988,83.7143916 301.109338,82.375386 303.918238,79.7268684 L304.599722,79.0839098 L300.617484,66.5550649 L298.857477,68.5252316 Z M246.519492,22.1732242 C238.904648,22.1732242 232.528326,25.3880173 228.297198,29.0452131 L228.297198,23.5594194 L213.10899,23.5594194 L213.10899,82.3340951 L228.297198,82.3340951 L228.297198,42.4116739 C230.720911,39.332551 235.414263,35.9054046 241.180212,35.9054046 C248.018758,35.9054046 250.934325,38.9137431 250.934325,45.9567943 L250.934325,82.3340951 L266.122533,82.3340951 L266.122533,41.5740581 C266.122533,29.0629092 259.159542,22.1732242 246.519492,22.1732242 Z M187.147406,63.6882952 C184.705915,66.6789376 180.000711,69.9822112 174.270318,69.9822112 C167.348809,69.9822112 164.522131,67.1390364 164.522131,60.1608709 L164.522131,23.5594194 L149.333923,23.5594194 L149.333923,64.5495059 C149.333923,77.0842495 156.065802,83.7143916 168.818445,83.7143916 C177.434775,83.7143916 183.58591,79.9923101 187.147406,76.9721742 L187.147406,82.3340951 L202.34154,82.3340951 L202.34154,23.5594194 L187.147406,23.5594194 L187.147406,63.6882952 Z M110.761919,35.9054046 C100.717435,35.9054046 96.1366761,44.7062693 96.1366761,52.8877702 C96.1366761,61.1223595 100.717435,69.9822112 110.761919,69.9822112 C120.889366,69.9822112 125.499755,61.1223595 125.499755,52.8877702 C125.499755,44.7062693 120.889366,35.9054046 110.761919,35.9054046 Z M141.156113,52.8877702 C141.156113,70.7490426 128.37384,83.7143916 110.761919,83.7143916 C93.221109,83.7143916 80.4862439,70.7490426 80.4862439,52.8877702 C80.4862439,35.0913836 93.221109,22.1732242 110.761919,22.1732242 C128.37384,22.1732242 141.156113,35.0913836 141.156113,52.8877702 Z M60.2965345,58.2673873 C56.5987421,64.7146695 49.4046396,68.7139901 41.529053,68.7139901 C27.5082568,68.7139901 16.9304373,57.3884805 16.9304373,42.3821804 C16.9304373,27.3699815 27.5082568,16.0444719 41.529053,16.0444719 C49.3394542,16.0444719 56.5276307,20.0496912 60.3024605,26.5028721 L61.0135744,27.7239036 L75.3484458,20.450803 L74.4832572,19.0646078 C66.9691535,7.1020383 55.8817022,1.04407041 41.529053,1.04407041 C17.8548854,1.04407041 0,18.8109636 0,42.3821804 C0,65.9474985 17.8548854,83.7143916 41.529053,83.7143916 C55.7394795,83.7143916 66.8210047,77.6564237 74.4773313,65.7056516 L75.3602977,64.3135578 L61.0076484,57.0286597 L60.2965345,58.2673873 Z M17.1319195,134.720476 C10.293374,133.145522 7.66225249,129.476529 7.66225249,125.28845 C7.66225249,123.459852 8.18966198,121.625355 9.24448097,119.537214 C11.0874512,115.868221 14.506724,113.249197 18.4534062,113.249197 C20.81786,113.249197 23.9704651,114.558709 26.8682543,117.437276 L50.7972377,140.471711 L51.3305732,140.212168 L42.3823897,107.492063 C39.2297846,97.2814083 45.2742529,93.6124151 52.3735402,93.6124151 C59.4787535,93.6124151 64.9958123,97.2814083 62.3706168,107.492063 L53.1616915,140.212168 L53.689101,140.471711 L77.6240104,117.437276 C80.7825414,114.558709 83.9351464,113.249197 86.3055261,113.249197 C89.9855407,113.249197 93.1381457,115.608678 95.2477837,119.01223 C96.5574185,120.840828 97.084828,122.934867 97.084828,125.028907 C97.084828,129.216986 94.7203742,133.145522 88.1425704,134.720476 L54.74392,142.046665 L54.74392,142.571649 L87.3603451,150.947807 C94.1929647,152.516862 96.8181603,156.704941 96.8181603,160.633477 C96.8181603,162.727517 96.2966767,164.562014 94.9870419,166.656053 C93.1381457,170.059605 89.7247989,172.159543 86.0388584,172.159543 C83.6744046,172.159543 80.2492059,170.844132 77.0966009,167.706022 L53.689101,144.140704 L53.1616915,144.400247 L62.109875,176.601266 C64.7350706,186.811921 59.4787535,191 52.3735402,191 C45.2742529,191 39.4846004,186.811921 42.3823897,176.601266 L51.3305732,144.400247 L50.7972377,144.140704 L27.6504796,167.706022 C24.2312068,171.109574 21.0786018,172.413187 18.1867385,172.413187 C14.7674657,172.413187 11.342267,170.319148 9.50522274,166.656053 C8.45040375,164.821557 7.66225249,162.467974 7.66225249,160.633477 C7.66225249,156.445398 10.5600417,152.516862 17.3985873,150.947807 L50.0090865,142.571649 L50.0090865,142.046665 L17.1319195,134.720476 Z" id="Fill-1" fill="#FEFEFE" mask="url(#mask-2)"></path>
        </g>
    </g>
</svg>